HIERARCHY
ROOT root
{
	OFFSET 0.000000 0.000000 0.000000
	CHANNELS 6 Xposition Yposition Zposition Zrotation Yrotation Xrotation
	JOINT lhip
	{
		OFFSET 0.058581 -0.082280 -0.017664
		CHANNELS 3 Zrotation Yrotation Xrotation
		JOINT lknee
		{
			OFFSET 0.043451 -0.386469 0.008037
			CHANNELS 3 Zrotation Yrotation Xrotation
			JOINT lankle
			{
				OFFSET -0.014790 -0.426874 -0.037428
				CHANNELS 3 Zrotation Yrotation Xrotation
				JOINT ltoe
				{
					OFFSET 0.041054 -0.060286 0.122042
					CHANNELS 3 Zrotation Yrotation Xrotation
					End Site
					{
						OFFSET 0.000000 0.000000 0.000000
					}
				}
			}
		}
	}
	JOINT rhip
	{
		OFFSET -0.060310 -0.090513 -0.013543
		CHANNELS 3 Zrotation Yrotation Xrotation
		JOINT rknee
		{
			OFFSET -0.043257 -0.383688 -0.004843
			CHANNELS 3 Zrotation Yrotation Xrotation
			JOINT rankle
			{
				OFFSET 0.019056 -0.420046 -0.034562
				CHANNELS 3 Zrotation Yrotation Xrotation
				JOINT rtoe
				{
					OFFSET -0.034840 -0.062106 0.130323
					CHANNELS 3 Zrotation Yrotation Xrotation
					End Site
					{
						OFFSET 0.000000 0.000000 0.000000
					}
				}
			}
		}
	}
	JOINT lowerback
	{
		OFFSET 0.004439 0.124404 -0.038385
		CHANNELS 3 Zrotation Yrotation Xrotation
		JOINT upperback
		{
			OFFSET 0.004488 0.137956 0.026820
			CHANNELS 3 Zrotation Yrotation Xrotation
			JOINT chest
			{
				OFFSET -0.002265 0.056032 0.002855
				CHANNELS 3 Zrotation Yrotation Xrotation
				JOINT lowerneck
				{
					OFFSET -0.013390 0.211636 -0.033468
					CHANNELS 3 Zrotation Yrotation Xrotation
					JOINT upperneck
					{
						OFFSET 0.010113 0.088937 0.050410
						CHANNELS 3 Zrotation Yrotation Xrotation
						End Site
						{
							OFFSET 0.000000 0.000000 0.000000
						}
					}
				}
				JOINT lclavicle
				{
					OFFSET 0.071702 0.114000 -0.018898
					CHANNELS 3 Zrotation Yrotation Xrotation
					JOINT lshoulder
					{
						OFFSET 0.122921 0.045205 -0.019046
						CHANNELS 3 Zrotation Yrotation Xrotation
						JOINT lelbow
						{
							OFFSET 0.255332 -0.015649 -0.022946
							CHANNELS 3 Zrotation Yrotation Xrotation
							JOINT lwrist
							{
								OFFSET 0.265709 0.012698 -0.007375
								CHANNELS 3 Zrotation Yrotation Xrotation
								End Site
								{
									OFFSET 0.000000 0.000000 0.000000
								}
							}
						}
					}
				}
				JOINT rclavicle
				{
					OFFSET -0.082954 0.112472 -0.023707
					CHANNELS 3 Zrotation Yrotation Xrotation
					JOINT rshoulder
					{
						OFFSET -0.113228 0.046853 -0.008472
						CHANNELS 3 Zrotation Yrotation Xrotation
						JOINT relbow
						{
							OFFSET -0.260127 -0.014369 -0.031269
							CHANNELS 3 Zrotation Yrotation Xrotation
							JOINT rwrist
							{
								OFFSET -0.269108 0.006794 -0.006027
								CHANNELS 3 Zrotation Yrotation Xrotation
								End Site
								{
									OFFSET 0.000000 0.000000 0.000000
								}
							}
						}
					}
				}
			}
		}
	}
}
MOTION
Frames: 7
Frame Time: 0.033333
0.135515 0.583982 0.931846 -171.642025 -0.024821 84.925065 17.616158 9.080898 -7.894013 -6.106157 6.796296 34.355543 1.995587 15.011805 -22.884272 0.000000 -0.000000 0.000000 -6.169072 -6.772623 -20.285108 2.399048 -2.290913 49.590430 3.509173 -8.761629 -26.932600 0.000000 -0.000000 0.000000 -2.531560 -4.164396 13.017757 -3.952185 -0.190117 3.785955 -5.489438 -2.079052 6.364379 -2.337087 -29.295210 2.089428 6.138875 -24.902111 4.113649 -21.704945 9.500806 -3.693837 -53.975063 -17.031517 10.490135 71.176572 -76.617269 -46.879961 19.692448 1.629537 -23.812003 11.235677 -3.769611 -4.292199 22.250095 2.741392 -10.931217 -29.508084 25.190977 -21.560167 -13.701515 5.512429 19.809810 
0.141665 0.588188 0.933958 -172.014830 -0.222851 84.793148 17.509945 9.408756 -6.891292 -5.879718 5.915924 33.164956 1.864355 15.367891 -22.411570 0.000000 -0.000000 0.000000 -5.691111 -7.026222 -19.898305 2.911524 -1.295483 49.233905 3.558114 -9.500604 -27.567408 0.000000 -0.000000 0.000000 -2.281577 -4.921105 12.572919 -4.714062 -0.718446 3.541761 -6.107966 -2.865831 7.155522 -2.287605 -28.463355 2.647878 6.261015 -22.515017 2.899140 -21.035870 11.213205 -4.030187 -52.964741 -16.430035 9.075442 70.681861 -76.647499 -45.746371 20.407888 2.171977 -23.636538 9.308191 -6.284057 -5.167078 20.189634 0.951825 -12.578735 -29.196063 23.913732 -22.808653 -17.154215 4.964953 20.396001 
0.146516 0.592319 0.936602 -172.577702 -0.614234 84.720323 17.293617 9.574422 -5.839363 -6.114245 5.127735 31.762536 1.404126 16.351072 -22.206380 0.000000 -0.000000 0.000000 -5.434777 -7.214523 -19.768448 3.069610 -0.777606 49.069287 3.325441 -10.103863 -27.495304 0.000000 -0.000000 0.000000 -1.931860 -5.396329 12.477128 -5.798396 -1.029776 3.200918 -7.083961 -3.118587 7.572500 -2.284082 -28.843683 4.186846 7.151366 -21.066449 1.919468 -20.455591 12.282069 -4.424729 -51.929451 -15.722685 7.587850 70.811311 -76.368442 -45.564501 19.698072 2.094421 -23.605843 7.102003 -8.775835 -5.231023 20.357390 -1.786952 -15.043304 -29.701296 23.375197 -24.276031 -16.408767 4.150957 18.968289 
0.151412 0.596191 0.938425 -172.974721 -0.589944 84.622325 17.481874 9.836628 -4.979982 -5.651281 4.700720 30.640793 1.345756 16.679887 -21.121189 0.000000 -0.000000 0.000000 -4.952465 -7.149949 -19.365281 3.115146 -0.579852 48.854717 3.260473 -10.152724 -27.682184 0.000000 -0.000000 0.000000 -1.617040 -6.129193 12.224348 -6.465854 -1.264220 3.106687 -7.497608 -3.497470 8.089967 -2.990634 -29.295911 5.636053 7.706229 -19.633192 1.052543 -20.348977 13.766618 -5.051249 -51.742092 -15.401468 6.789456 71.215786 -75.915623 -46.319335 19.780159 2.724341 -25.117209 5.357663 -11.035513 -6.653740 19.572545 -3.872713 -16.304419 -29.820488 22.553821 -25.373748 -16.899471 4.537932 18.575855 
0.156474 0.598656 0.940305 -173.302689 -0.712300 84.907888 17.469479 9.682914 -4.613430 -5.381233 4.427154 29.530818 1.056788 16.984576 -20.571996 0.000000 -0.000000 0.000000 -4.555555 -6.914812 -19.396504 3.312186 -0.200767 48.632868 3.448248 -10.372292 -28.062124 0.000000 -0.000000 0.000000 -1.818659 -6.671593 11.676874 -6.882509 -1.679664 2.823831 -7.810689 -4.036302 8.568113 -3.403329 -28.979169 6.859089 7.859991 -18.430072 1.014793 -20.192846 15.439880 -5.588526 -51.837337 -14.941572 6.217764 73.078960 -75.090046 -48.037777 19.442416 2.711988 -25.243835 4.120110 -12.820227 -6.546967 18.975162 -5.155940 -17.463276 -30.492988 21.299815 -26.332012 -16.152450 3.594594 18.767442 
0.160800 0.601661 0.942428 -173.511839 -0.285612 84.443275 17.873431 10.691661 -3.908683 -4.272853 3.367735 29.173206 -0.178318 16.308048 -19.783473 0.000000 -0.000000 0.000000 -3.462366 -7.801100 -18.552769 3.467332 0.726507 48.016737 2.337693 -10.830511 -27.440545 0.000000 -0.000000 0.000000 -0.953285 -7.981700 12.642534 -8.850503 -2.555114 0.891260 -7.124405 -4.107712 9.407271 -6.955146 -29.802779 9.408587 10.713617 -14.285768 0.944616 -19.763763 15.882896 -6.901207 -51.998068 -11.719396 3.421492 78.444792 -76.477530 -56.379755 17.939344 3.362949 -23.301363 1.414925 -12.565036 -6.203571 18.291385 -8.170720 -22.408353 -25.975389 22.204851 -26.934760 -24.044429 6.180275 26.784563 
0.165598 0.602863 0.944561 -174.068967 -0.270295 84.451774 17.891572 10.647217 -3.161659 -3.856865 3.035014 27.977939 -0.568126 16.802564 -19.051725 0.000000 -0.000000 0.000000 -2.991898 -7.376253 -18.395107 3.478657 0.878030 47.688432 2.506822 -10.898589 -27.334726 0.000000 -0.000000 0.000000 -1.078554 -8.644450 12.604810 -9.356686 -2.745691 0.325752 -7.481051 -4.319659 9.692223 -7.138446 -29.392381 9.891361 10.644653 -13.255355 1.449547 -19.645122 17.138712 -7.519489 -51.840723 -11.301135 3.056986 79.091550 -76.134279 -57.160547 17.532072 3.533027 -23.788526 0.630097 -13.851764 -6.867075 17.729513 -8.594016 -22.515884 -25.489084 21.325986 -26.994846 -24.864388 6.150084 27.101019 
